<svg width="46" height="44" viewBox="0 0 46 44" fill="none" xmlns="http://www.w3.org/2000/svg">
<path fill-rule="evenodd" clip-rule="evenodd" d="M31.662 0.626565C33.0818 0.626565 34.4993 0.826815 35.847 1.27907C44.1518 3.97907 47.1443 13.0916 44.6445 21.0566C43.227 25.1268 40.9095 28.8416 37.8743 31.8768C33.5295 36.0843 28.7618 39.8193 23.6295 43.0368L23.067 43.3766L22.482 43.0143C17.3318 39.8193 12.537 36.0843 8.1518 31.8543C5.1368 28.8191 2.81705 25.1268 1.37705 21.0566C-1.16545 13.0916 1.82705 3.97907 10.2218 1.23182C10.8743 1.00681 11.547 0.849315 12.222 0.761565H12.492C13.1243 0.669315 13.752 0.626565 14.382 0.626565H14.6295C16.047 0.669315 17.4195 0.916815 18.7493 1.36907H18.882C18.972 1.41182 19.0395 1.45907 19.0845 1.50182C19.5818 1.66157 20.052 1.84157 20.502 2.08907L21.357 2.47157C21.5636 2.58175 21.7955 2.75012 21.996 2.89562C22.1229 2.98782 22.2373 3.07083 22.3245 3.12407C22.3613 3.14573 22.3986 3.16751 22.4362 3.18947C22.6291 3.30209 22.8301 3.4194 22.9995 3.54932C25.4993 1.63907 28.5345 0.604065 31.662 0.626565ZM37.6471 16.8266C38.5696 16.8018 39.357 16.0616 39.4245 15.1143V14.8466C39.492 11.6943 37.5818 8.83907 34.6771 7.73657C33.7546 7.41932 32.7421 7.91657 32.4046 8.86157C32.0896 9.80657 32.5846 10.8416 33.5296 11.1768C34.9718 11.7168 35.9371 13.1366 35.9371 14.7093V14.7791C35.8943 15.2943 36.0496 15.7916 36.3646 16.1741C36.6796 16.5566 37.1521 16.7793 37.6471 16.8266Z" fill="#69B99D"/>
</svg>
