<svg width="14" height="14" viewBox="0 0 14 14" fill="none" xmlns="http://www.w3.org/2000/svg">
<path d="M6.99997 4.67862C5.71788 4.67862 4.67854 5.71796 4.67854 7.00005C4.67854 8.28214 5.71788 9.32148 6.99997 9.32148C8.28206 9.32148 9.3214 8.28214 9.3214 7.00005C9.3214 5.71796 8.28206 4.67862 6.99997 4.67862Z" fill="#29CDB5"/>
<path fill-rule="evenodd" clip-rule="evenodd" d="M3.26393 0.62967C5.72687 0.3544 8.27309 0.3544 10.736 0.62967C12.092 0.781223 13.1857 1.84964 13.3449 3.21039C13.6394 5.72825 13.6394 8.27185 13.3449 10.7897C13.1857 12.1505 12.092 13.2189 10.736 13.3704C8.27309 13.6457 5.72687 13.6457 3.26393 13.3704C1.90793 13.2189 0.814221 12.1505 0.655069 10.7897C0.360582 8.27185 0.360582 5.72825 0.655069 3.21039C0.814221 1.84964 1.90793 0.781223 3.26393 0.62967ZM10.5714 2.71434C10.1769 2.71434 9.85712 3.03413 9.85712 3.42862C9.85712 3.82311 10.1769 4.14291 10.5714 4.14291C10.9659 4.14291 11.2857 3.82311 11.2857 3.42862C11.2857 3.03413 10.9659 2.71434 10.5714 2.71434ZM3.60712 7.00005C3.60712 5.12623 5.12615 3.60719 6.99997 3.60719C8.8738 3.60719 10.3928 5.12623 10.3928 7.00005C10.3928 8.87387 8.8738 10.3929 6.99997 10.3929C5.12615 10.3929 3.60712 8.87387 3.60712 7.00005Z" fill="#29CDB5"/>
</svg>
